<mxfile host="app.diagrams.net" modified="2023-11-23T09:19:48.178Z" agent="Mozilla/5.0 (Macintosh; Intel Mac OS X 10_15_7) AppleWebKit/537.36 (KHTML, like Gecko) Chrome/119.0.0.0 Safari/537.36" version="22.1.3" etag="ZOGm2DAF1bWtj0BFoPjk" type="github">
  <diagram name="第 1 页" id="yiW_kkzU4z8UmxQ1oKGu">
    <mxGraphModel>
      <root>
        <mxCell id="0" />
        <mxCell id="1" parent="0" />
      </root>
    </mxGraphModel>
  </diagram>
</mxfile>
